<svg width="161" height="135" viewBox="0 0 161 135" fill="none" xmlns="http://www.w3.org/2000/svg">
<path d="M0 0H153.239C157.105 0 160.239 3.13401 160.239 7V127.28C160.239 131.146 157.105 134.28 153.239 134.28H0V0Z" fill="#711519"/>
<path d="M41.04 78H46.04V128H41.04V78Z" fill="#450000"/>
<path d="M43.04 111L50.8342 114H35.2458L43.04 111Z" fill="#073705"/>
<path d="M51.54 107L62.3653 110H40.7147L51.54 107Z" fill="#073705"/>
<path d="M36.04 103L45.5663 106.75H26.5137L36.04 103Z" fill="#073705"/>
<path d="M47.54 101L60.04 104H35.04L47.54 101Z" fill="#073705"/>
<path d="M48.04 96L55.8342 99H40.2458L48.04 96Z" fill="#073705"/>
<path d="M37.54 93L45.7673 96.75H29.3128L37.54 93Z" fill="#073705"/>
<path d="M42.04 88L49.8342 91.75H34.2458L42.04 88Z" fill="#073705"/>
<path d="M40.04 83L47.8342 86.75H32.2458L40.04 83Z" fill="#073705"/>
<path d="M50.54 81L58.7673 84H42.3128L50.54 81Z" fill="#073705"/>
<path d="M48.04 77L55.8342 80H40.2458L48.04 77Z" fill="#073705"/>
<path d="M43.04 75L50.8342 78.75H35.2458L43.04 75Z" fill="#073705"/>
<path d="M23.04 8H31.04V126H23.04V8Z" fill="#450000"/>
<path d="M23.54 94L37.8294 99.25H9.2506L23.54 94Z" fill="#0B3D08"/>
<path d="M15.54 89L29.8294 94.25H1.2506L15.54 89Z" fill="#0B3D08"/>
<path d="M30.04 91L43.8964 96.25H16.1836L30.04 91Z" fill="#0B3D08"/>
<path d="M24.54 88L38.8294 93.25H10.2506L24.54 88Z" fill="#0B3D08"/>
<path d="M31.04 85L44.8964 90.25H17.1836L31.04 85Z" fill="#0B3D08"/>
<path d="M16.54 87L30.8294 92.25H2.2506L16.54 87Z" fill="#0B3D08"/>
<path d="M31.04 84L44.8964 88.5H17.1836L31.04 84Z" fill="#0B3D08"/>
<path d="M40.04 82L53.8964 85.75H26.1836L40.04 82Z" fill="#0B3D08"/>
<path d="M21.54 79L35.8294 82.75H7.2506L21.54 79Z" fill="#0B3D08"/>
<path d="M24.54 73L36.2314 76.75H12.8487L24.54 73Z" fill="#0B3D08"/>
<path d="M32.04 72L44.1644 75H19.9157L32.04 72Z" fill="#0B3D08"/>
<path d="M17.04 76L29.1644 79.75H4.91567L17.04 76Z" fill="#0B3D08"/>
<path d="M24.54 68L36.2314 71.75H12.8487L24.54 68Z" fill="#0B3D08"/>
<path d="M34.04 70L47.0304 74.5H21.0496L34.04 70Z" fill="#0B3D08"/>
<path d="M18.04 67L31.0304 72.25H5.04964L18.04 67Z" fill="#0B3D08"/>
<path d="M28.04 58L40.1644 62.5H15.9157L28.04 58Z" fill="#0B3D08"/>
<path d="M20.04 56L32.1644 60.5H7.91567L20.04 56Z" fill="#0B3D08"/>
<path d="M39.04 64L51.1644 68.5H26.9157L39.04 64Z" fill="#0B3D08"/>
<path d="M31.04 62L43.1644 66.5H18.9157L31.04 62Z" fill="#0B3D08"/>
<path d="M28.04 50L40.1644 54.5H15.9157L28.04 50Z" fill="#0B3D08"/>
<path d="M36.04 46L49.0304 51.25H23.0496L36.04 46Z" fill="#0B3D08"/>
<path d="M16.54 44L32.5615 48.5H0.518555L16.54 44Z" fill="#0B3D08"/>
<path d="M25.54 40L34.6333 43H16.4468L25.54 40Z" fill="#0B3D08"/>
<path d="M35.54 36L48.0974 39H22.9827L35.54 36Z" fill="#0B3D08"/>
<path d="M17.54 32L28.3653 35.75H6.71471L17.54 32Z" fill="#0B3D08"/>
<path d="M31.04 30L45.04 33H17.04L31.04 30Z" fill="#0B3D08"/>
<path d="M31.54 25L40.6333 28H22.4468L31.54 25Z" fill="#0B3D08"/>
<path d="M19.54 22L28.6333 25.75H10.4468L19.54 22Z" fill="#0B3D08"/>
<path d="M24.54 17L33.6333 20.75H15.4468L24.54 17Z" fill="#0B3D08"/>
<path d="M22.54 12L31.6333 15.75H13.4468L22.54 12Z" fill="#0B3D08"/>
<path d="M34.54 10L43.6333 13H25.4468L34.54 10Z" fill="#0B3D08"/>
<path d="M31.54 6L40.6333 9H22.4468L31.54 6Z" fill="#0B3D08"/>
<path d="M25.54 4L34.6333 7.75H16.4468L25.54 4Z" fill="#0B3D08"/>
<path d="M41.344 130.28C33.408 130.28 26.3253 128.488 20.096 124.904C13.8667 121.235 8.96 116.328 5.376 110.184C1.792 103.955 0 96.9147 0 89.064C0 82.5787 1.10933 76.5627 3.328 71.016C5.632 65.4693 8.78933 60.6053 12.8 56.424C16.8107 52.2427 21.4187 49 26.624 46.696C31.9147 44.392 37.5467 43.24 43.52 43.24C49.4933 43.24 54.3147 43.88 57.984 45.16C61.6533 46.44 65.2373 47.8907 68.736 49.512L69.376 69.352H66.688L61.568 54.632C58.24 52.1573 55.0827 50.3227 52.096 49.128C49.1947 47.848 45.9947 47.208 42.496 47.208C35.4987 47.208 29.3547 48.872 24.064 52.2C18.7733 55.528 14.592 60.008 11.52 65.64C8.53333 71.1867 7.04 77.288 7.04 83.944C7.04 92.392 8.61867 99.7733 11.776 106.088C14.9333 112.403 19.2427 117.352 24.704 120.936C30.1653 124.435 36.3093 126.184 43.136 126.184C47.0613 126.184 50.432 125.715 53.248 124.776C56.064 123.837 58.7093 122.6 61.184 121.064L68.096 104.936H70.656L69.504 124.008C67.0293 125.288 64.512 126.397 61.952 127.336C59.392 128.275 56.448 129 53.12 129.512C49.8773 130.024 45.952 130.28 41.344 130.28Z" fill="white"/>
<path d="M90.735 129V125.8L100.975 123.624V49.896L90.735 47.72V44.52H116.079C125.039 44.52 132.079 46.3973 137.199 50.152C142.404 53.8213 145.007 58.8987 145.007 65.384C145.007 70.504 143.343 74.856 140.015 78.44C136.772 82.024 132.463 84.6693 127.087 86.376L151.791 124.136L160.239 125.8V129H145.391L119.791 88.936H108.655V123.496L118.255 125.8V129H90.735ZM116.975 49H108.655V84.456H117.743C123.119 84.456 127.556 82.8347 131.055 79.592C134.639 76.264 136.431 72.0827 136.431 67.048C136.431 61.5013 134.682 57.1067 131.183 53.864C127.684 50.6213 122.948 49 116.975 49Z" fill="white"/>
</svg>
